#!OML:ASF F:\VICON\USERDATA\INSTALL\rory3\rory3.ASF
:FULLY-SPECIFIED
:DEGREES
3445
root -3.18673 18.6145 3.67979 -1.08158 1.84204 1.25863
lowerback 4.31305 0.857974 -3.63712
upperback -1.87459 0.873134 -1.21314
thorax -4.39642 0.518594 0.714348
lowerneck -12.8219 -2.44581 -7.59176
upperneck 11.4169 -2.93983 7.48773
head 5.77508 -1.21071 3.3593
rclavicle 5.7896e-015 -1.19271e-014
rhumerus 12.9586 -39.6842 -41.7977
rradius 129.162
rwrist -45.6149
rhand -15.7025 4.42149
rfingers 7.12502
rthumb 10.4871 -25.2969
lclavicle 5.7896e-015 -1.19271e-014
lhumerus 23.3386 37.6791 46.015
lradius 93.0478
lwrist 51.9832
lhand -25.3973 15.1184
lfingers 7.12502
lthumb 1.1279 45.0951
rfemur -3.9452 13.4867 19.6114
rtibia 27.5631
rfoot -22.4393 -26.1162
rtoes 0.276973
lfemur -9.11219 -0.390077 -16.5013
ltibia 29.3274
lfoot -19.6345 20.8523
ltoes 0.27452
3446
root -3.11748 18.6112 3.698 -1.05834 2.28553 1.39844
lowerback 4.20526 0.728563 -3.99194
upperback -1.83859 0.685495 -1.21858
thorax -4.29564 0.433556 0.924262
lowerneck -12.9737 -2.42651 -7.51778
upperneck 11.5597 -2.91535 7.42673
head 5.84165 -1.19692 3.33036
rclavicle -1.17531e-014 -8.74653e-015
rhumerus 10.8963 -39.6916 -40.2154
rradius 129.1
rwrist -45.6008
rhand -16.1031 4.75886
rfingers 7.12502
rthumb 10.1007 -24.9787
lclavicle -1.17531e-014 -8.74653e-015
lhumerus 25.4324 37.5449 47.6185
lradius 93.5602
lwrist 52.0578
lhand -25.381 15.094
lfingers 7.12502
lthumb 1.14355 45.0706
rfemur -4.05405 13.1494 19.2009
rtibia 28.0173
rfoot -22.6882 -26.0073
rtoes 0.241756
lfemur -8.89288 -0.917918 -16.9574
ltibia 28.9203
lfoot -20.0946 21.0109
ltoes 1.43875
3447
root -3.04584 18.6078 3.71648 -1.07053 2.77895 1.67742
lowerback 4.99922 0.73274 -4.11502
upperback -2.43685 0.605922 -1.50541
thorax -5.36849 0.416589 0.68593
lowerneck -12.3582 -2.48802 -7.51519
upperneck 11.9224 -3.08608 7.61317
head 5.86717 -1.27745 3.37982
rclavicle -4.17448e-015 4.57205e-014
rhumerus 7.24631 -39.2922 -37.7537
rradius 129.148
rwrist -45.6759
rhand -16.1139 4.94715
rfingers 7.12502
rthumb 10.0903 -24.7909
lclavicle -4.17448e-015 4.57205e-014
lhumerus 26.8842 36.4097 48.7513
lradius 94.1421
lwrist 52.2144
lhand -25.4961 14.6476
lfingers 7.12502
lthumb 1.03239 44.6249
rfemur -4.14767 12.7452 18.6116
rtibia 28.5584
rfoot -22.6732 -25.9265
rtoes -0.637086
lfemur -8.64464 -1.47261 -17.58
ltibia 28.5665
lfoot -20.4807 21.1016
ltoes 2.6625
3448
root -2.97345 18.6039 3.7296 -1.07076 3.25134 1.93055
lowerback 5.21202 0.640381 -4.4383
upperback -2.57303 0.434813 -1.62846
thorax -5.62933 0.347118 0.751451
lowerneck -12.234 -2.4828 -7.54958
upperneck 12.0677 -3.11593 7.80076
head 5.89735 -1.28177 3.44514
rclavicle -1.23743e-014 3.93594e-014
rhumerus 4.64242 -38.9866 -36.0819
rradius 129.132
rwrist -45.5984
rhand -15.9137 4.93049
rfingers 7.12502
rthumb 10.2834 -24.7981
lclavicle -1.23743e-014 3.93594e-014
lhumerus 28.6398 35.9441 50.2792
lradius 94.8049
lwrist 52.3597
lhand -25.4667 14.3343
lfingers 7.12502
lthumb 1.0608 44.3114
rfemur -4.27434 12.5313 18.0412
rtibia 29.1465
rfoot -22.7596 -25.8302
rtoes -1.23085
lfemur -8.48495 -1.7574 -18.1581
ltibia 28.3093
lfoot -20.4223 21.1217
ltoes 2.99937
3449
root -2.90256 18.5988 3.73582 -1.07959 3.71853 1.93719
lowerback 5.12951 0.45301 -4.67998
upperback -2.41779 0.18132 -1.56188
thorax -5.40909 0.226133 0.983422
lowerneck -12.5317 -2.44286 -7.63335
upperneck 12.1293 -3.05067 7.94629
head 5.96575 -1.23677 3.51155
rclavicle 4.42296e-015 1.74931e-014
rhumerus 2.71491 -38.6943 -34.9942
rradius 129.076
rwrist -45.5171
rhand -15.926 5.00908
rfingers 7.12502
rthumb 10.2715 -24.7201
lclavicle 4.42296e-015 1.74931e-014
lhumerus 30.5175 35.9462 51.9426
lradius 95.478
lwrist 52.4462
lhand -25.4372 14.1399
lfingers 7.12502
lthumb 1.08927 44.1168
rfemur -4.46586 12.4331 17.7476
rtibia 29.7745
rfoot -22.8246 -25.751
rtoes -1.76875
lfemur -8.41039 -1.7672 -18.4163
ltibia 28.1588
lfoot -20.1849 20.7992
ltoes 3.26697
3450
root -2.83229 18.5979 3.7353 -1.13574 4.15116 1.89676
lowerback 5.31436 0.291394 -4.81129
upperback -2.34606 -0.0517094 -1.53289
thorax -5.42759 0.115589 1.10974
lowerneck -12.7774 -2.40447 -7.64331
upperneck 12.2857 -3.0044 8.05483
head 6.05487 -1.20098 3.55351
rclavicle -1.39646e-014 -2.38542e-014
rhumerus 0.546787 -38.3073 -33.9032
rradius 128.975
rwrist -45.3981
rhand -15.9489 5.23142
rfingers 7.12502
rthumb 10.2495 -24.4989
lclavicle -1.39646e-014 -2.38542e-014
lhumerus 32.1914 35.799 53.3588
lradius 96.1339
lwrist 52.5617
lhand -25.4693 14.0197
lfingers 7.12502
lthumb 1.05833 43.9968
rfemur -4.71349 12.2412 17.5056
rtibia 30.4537
rfoot -22.5601 -25.7117
rtoes -2.74112
lfemur -8.39859 -1.72658 -18.5842
ltibia 28.118
lfoot -19.9812 20.3499
ltoes 3.7993
3451
root -2.76226 18.5979 3.73192 -1.21449 4.5747 2.03933
lowerback 5.41683 0.119193 -5.22696
upperback -2.13379 -0.307789 -1.47299
thorax -5.24852 -0.00236601 1.43078
lowerneck -13.2372 -2.38813 -7.7271
upperneck 12.4589 -2.94787 8.08208
head 6.1851 -1.16537 3.5823
rclavicle 2.60905e-015 -4.37326e-015
rhumerus -1.31511 -37.9415 -33.0365
rradius 128.787
rwrist -45.1062
rhand -16.0877 5.86112
rfingers 7.12502
rthumb 10.1156 -23.8757
lclavicle 2.60905e-015 -4.37326e-015
lhumerus 33.9067 35.8153 54.9614
lradius 96.8575
lwrist 52.6142
lhand -25.5648 13.7834
lfingers 7.12502
lthumb 0.966047 43.761
rfemur -4.93677 11.9718 17.0453
rtibia 31.1762
rfoot -22.2615 -25.5496
rtoes -3.64961
lfemur -8.42406 -1.72789 -18.939
ltibia 28.1865
lfoot -19.6887 20.0004
ltoes 3.44266
